<svg width="20" height="20" viewBox="0 0 20 20" fill="none" xmlns="http://www.w3.org/2000/svg">
<path d="M13.0893 10.5893C13.2455 10.433 13.3333 10.221 13.3333 10C13.3333 9.77899 13.2455 9.56703 13.0893 9.41075L9.75592 6.07741C9.43049 5.75197 8.90285 5.75197 8.57741 6.07741C8.25197 6.40285 8.25197 6.93048 8.57741 7.25592L11.3215 10L8.57741 12.7441C8.25197 13.0695 8.25197 13.5972 8.57741 13.9226C8.90285 14.248 9.43048 14.248 9.75592 13.9226L13.0893 10.5893Z" fill="#FF5003"/>
<path fill-rule="evenodd" clip-rule="evenodd" d="M20 10C20 15.5228 15.5228 20 10 20C4.47715 20 0 15.5228 0 10C0 4.47715 4.47715 0 10 0C15.5228 0 20 4.47715 20 10ZM18.3333 10C18.3333 14.6024 14.6024 18.3333 10 18.3333C5.39763 18.3333 1.66667 14.6024 1.66667 10C1.66667 5.39763 5.39763 1.66667 10 1.66667C14.6024 1.66667 18.3333 5.39763 18.3333 10Z" fill="#FF5003"/>
</svg>
