<svg width="19" height="24" viewBox="0 0 19 24" fill="none" xmlns="http://www.w3.org/2000/svg">
<path d="M5.33337 7.96155C4.78109 7.96155 4.33337 8.40926 4.33337 8.96155C4.33337 9.51383 4.78109 9.96155 5.33337 9.96155H13.3334C13.8857 9.96155 14.3334 9.51383 14.3334 8.96155C14.3334 8.40926 13.8857 7.96155 13.3334 7.96155H5.33337Z" fill="#6C7278"/>
<path d="M5.33337 11.9615C4.78109 11.9615 4.33337 12.4093 4.33337 12.9615C4.33337 13.5138 4.78109 13.9615 5.33337 13.9615H13.3334C13.8857 13.9615 14.3334 13.5138 14.3334 12.9615C14.3334 12.4093 13.8857 11.9615 13.3334 11.9615H5.33337Z" fill="#6C7278"/>
<path d="M5.33337 15.9615C4.78109 15.9615 4.33337 16.4093 4.33337 16.9615C4.33337 17.5138 4.78109 17.9615 5.33337 17.9615H9.33337C9.88566 17.9615 10.3334 17.5138 10.3334 16.9615C10.3334 16.4093 9.88566 15.9615 9.33337 15.9615H5.33337Z" fill="#6C7278"/>
<path fill-rule="evenodd" clip-rule="evenodd" d="M3.33337 3.96155H6.33337C6.33337 2.30469 7.67652 0.961548 9.33337 0.961548C10.9902 0.961548 12.3334 2.30469 12.3334 3.96155H15.3334C16.9902 3.96155 18.3334 5.30469 18.3334 6.96155V20.9615C18.3334 22.6184 16.9902 23.9615 15.3334 23.9615H3.33337C1.67652 23.9615 0.333374 22.6184 0.333374 20.9615V6.96155C0.333374 5.30469 1.67652 3.96155 3.33337 3.96155ZM9.33337 2.96155C8.78109 2.96155 8.33337 3.40926 8.33337 3.96155H10.3334C10.3334 3.40926 9.88566 2.96155 9.33337 2.96155ZM3.33337 5.96155C2.78109 5.96155 2.33337 6.40926 2.33337 6.96155V20.9615C2.33337 21.5138 2.78109 21.9615 3.33337 21.9615H15.3334C15.8857 21.9615 16.3334 21.5138 16.3334 20.9615V6.96155C16.3334 6.40926 15.8857 5.96155 15.3334 5.96155H3.33337Z" fill="#6C7278"/>
</svg>
