<svg width="24" height="25" viewBox="0 0 24 25" fill="none" xmlns="http://www.w3.org/2000/svg">
<g clip-path="url(#clip0_1273_29)">
<path fill-rule="evenodd" clip-rule="evenodd" d="M16.8396 14.0762C16.8396 16.8376 14.601 19.0762 11.8396 19.0762C9.0782 19.0762 6.83962 16.8376 6.83962 14.0762C6.83962 11.3147 9.0782 9.07617 11.8396 9.07617C14.601 9.07617 16.8396 11.3147 16.8396 14.0762ZM14.8396 14.0762C14.8396 15.733 13.4965 17.0762 11.8396 17.0762C10.1828 17.0762 8.83962 15.733 8.83962 14.0762C8.83962 12.4193 10.1828 11.0762 11.8396 11.0762C13.4965 11.0762 14.8396 12.4193 14.8396 14.0762Z" fill="#FF5003"/>
<path fill-rule="evenodd" clip-rule="evenodd" d="M13.4746 2.44622C12.4804 1.79999 11.1989 1.79999 10.2047 2.44622L2.36512 7.54192C1.3859 8.17841 0.865068 9.32534 1.03023 10.4815L2.60437 21.5004C2.8155 22.9784 4.08126 24.0762 5.57421 24.0762H18.105C19.598 24.0762 20.8637 22.9784 21.0749 21.5004L22.649 10.4815C22.8142 9.32535 22.2934 8.17841 21.3141 7.54192L13.4746 2.44622ZM11.2946 4.1231C11.626 3.9077 12.0532 3.9077 12.3846 4.1231L20.2242 9.21881C20.5506 9.43097 20.7242 9.81328 20.6691 10.1987L19.095 21.2176C19.0246 21.7102 18.6027 22.0762 18.105 22.0762H5.57421C5.07656 22.0762 4.65464 21.7102 4.58427 21.2176L3.01013 10.1987C2.95508 9.81328 3.12869 9.43097 3.4551 9.21881L11.2946 4.1231Z" fill="#FF5003"/>
</g>
<defs>
<clipPath id="clip0_1273_29">
<rect width="24" height="24" fill="white" transform="translate(0 0.961548)"/>
</clipPath>
</defs>
</svg>
