<svg width="23" height="21" viewBox="0 0 23 21" fill="none" xmlns="http://www.w3.org/2000/svg">
<path fill-rule="evenodd" clip-rule="evenodd" d="M20.6667 6.15384C20.6667 9.3401 17.9804 11.9231 14.6667 11.9231C11.353 11.9231 8.66669 9.3401 8.66669 6.15384C8.66669 2.96759 11.353 0.384613 14.6667 0.384613C17.9804 0.384613 20.6667 2.96759 20.6667 6.15384ZM18.6667 6.15384C18.6667 8.27802 16.8758 10 14.6667 10C12.4575 10 10.6667 8.27802 10.6667 6.15384C10.6667 4.02967 12.4575 2.30769 14.6667 2.30769C16.8758 2.30769 18.6667 4.02967 18.6667 6.15384Z" fill="#6C7278"/>
<path d="M7.86562 2.38444C8.40687 2.2788 8.75657 1.77127 8.6467 1.25084C8.53683 0.730408 8.009 0.394156 7.46775 0.499798C4.72865 1.03442 2.66669 3.36142 2.66669 6.15364C2.66669 8.94586 4.72865 11.2729 7.46775 11.8075C8.009 11.9131 8.53683 11.5769 8.6467 11.0564C8.75657 10.536 8.40687 10.0285 7.86562 9.92284C6.04025 9.56656 4.66669 8.01326 4.66669 6.15364C4.66669 4.29402 6.04025 2.74072 7.86562 2.38444Z" fill="#6C7278"/>
<path fill-rule="evenodd" clip-rule="evenodd" d="M9.3646 14.3976C10.5974 13.4877 12.3157 12.8846 14.6667 12.8846C17.0177 12.8846 18.736 13.4877 19.9689 14.3976C21.1925 15.3008 21.8582 16.4471 22.2192 17.4121C22.5369 18.2615 22.3143 19.0929 21.7815 19.6822C21.2669 20.2512 20.4878 20.5769 19.6667 20.5769H9.66672C8.84558 20.5769 8.06648 20.2512 7.55189 19.6822C7.01905 19.0929 6.79645 18.2615 7.11422 17.4121C7.47525 16.4471 8.14095 15.3008 9.3646 14.3976ZM10.5824 15.9231C9.74025 16.5447 9.26513 17.3441 8.99616 18.063C8.94003 18.2131 8.97091 18.3205 9.06116 18.4203C9.16966 18.5403 9.38327 18.6538 9.66672 18.6538H19.6667C19.9501 18.6538 20.1637 18.5403 20.2722 18.4203C20.3625 18.3205 20.3934 18.2131 20.3372 18.0631C20.0683 17.3441 19.5932 16.5447 18.7511 15.9231C17.9181 15.3083 16.6457 14.8077 14.6667 14.8077C12.6878 14.8077 11.4153 15.3083 10.5824 15.9231Z" fill="#6C7278"/>
<path d="M2.91761 17.9585C3.12232 17.2006 3.47366 16.4037 4.05349 15.8081C4.60457 15.242 5.4072 14.8077 6.66669 14.8077C7.21897 14.8077 7.66669 14.3772 7.66669 13.8462C7.66669 13.3151 7.21897 12.8846 6.66669 12.8846C4.84602 12.8846 3.51722 13.5449 2.59339 14.4939C1.6983 15.4133 1.23124 16.5517 0.98183 17.4751C0.49863 19.2641 2.08118 20.5769 3.66666 20.5769H4.43588C4.98816 20.5769 5.43588 20.1464 5.43588 19.6154C5.43588 19.0843 4.98816 18.6538 4.43588 18.6538H3.66666C3.38413 18.6538 3.15914 18.5422 3.03122 18.4063C2.91537 18.2832 2.86929 18.1374 2.91761 17.9585Z" fill="#6C7278"/>
</svg>
