<svg width="22" height="25" viewBox="0 0 22 25" fill="none" xmlns="http://www.w3.org/2000/svg">
<path fill-rule="evenodd" clip-rule="evenodd" d="M11 7.96155C8.23858 7.96155 6 10.2001 6 12.9615C6 15.723 8.23858 17.9615 11 17.9615C13.7614 17.9615 16 15.723 16 12.9615C16 10.2001 13.7614 7.96155 11 7.96155ZM8 12.9615C8 11.3047 9.34315 9.96155 11 9.96155C12.6569 9.96155 14 11.3047 14 12.9615C14 14.6184 12.6569 15.9615 11 15.9615C9.34315 15.9615 8 14.6184 8 12.9615Z" fill="#6C7278"/>
<path fill-rule="evenodd" clip-rule="evenodd" d="M10.9998 0.961548C9.34297 0.961548 7.99982 2.30469 7.99982 3.96155V4.47395C6.94579 4.8465 5.98255 5.40941 5.15122 6.12075L4.70552 5.86343C3.27065 5.035 1.43588 5.52663 0.607448 6.96151C-0.220979 8.39638 0.270646 10.2312 1.70552 11.0596L2.15005 11.3162C2.05133 11.8502 1.99982 12.4002 1.99982 12.9615C1.99982 13.5272 2.05213 14.0814 2.15235 14.6193L1.70171 14.8735C0.255948 15.6892 -0.246486 17.5278 0.583513 18.9654C1.41087 20.3985 3.24613 20.8849 4.67467 20.0498L5.12968 19.7839C5.96478 20.503 6.93406 21.0718 7.99553 21.4476L7.99126 21.9353C7.97666 23.6023 9.32399 24.9615 10.9911 24.9615C12.6376 24.9615 13.9765 23.6344 13.9909 21.9879L13.9956 21.4506C15.0505 21.0784 16.0146 20.5154 16.8466 19.8039L17.2608 20.0454C18.6965 20.8828 20.5393 20.3933 21.3703 18.954C22.1961 17.5236 21.7104 15.6947 20.2836 14.8626L19.8492 14.6092C19.9482 14.0744 19.9998 13.5237 19.9998 12.9615C19.9998 12.3995 19.9482 11.8487 19.8492 11.314L20.2837 11.0606C21.7104 10.2284 22.1961 8.39955 21.3703 6.96916C20.5393 5.52981 18.6964 5.04038 17.2608 5.87775L16.8467 6.11927C16.0157 5.40863 15.0531 4.84624 13.9998 4.47395V3.96155C13.9998 2.30469 12.6567 0.961548 10.9998 0.961548ZM9.99982 3.96155C9.99982 3.40926 10.4475 2.96155 10.9998 2.96155C11.5521 2.96155 11.9998 3.40926 11.9998 3.96155V5.21358C11.9998 5.66987 12.3087 6.06829 12.7506 6.18202C14.0006 6.50377 15.1171 7.1631 15.9962 8.05889C16.3184 8.3872 16.823 8.45336 17.219 8.21922L17.4319 8.0933L17.437 8.09025L18.2684 7.60537C18.747 7.32625 19.3612 7.48939 19.6382 7.96916C19.9135 8.44595 19.7516 9.05556 19.276 9.33294L18.439 9.82113L18.2339 9.93151C17.8224 10.153 17.6191 10.63 17.7444 11.0802C17.9106 11.6777 17.9998 12.3084 17.9998 12.9615C17.9998 13.6136 17.9109 14.2434 17.7452 14.84C17.6215 15.2852 17.819 15.7572 18.2229 15.9817L18.4332 16.0986L19.276 16.5902C19.7516 16.8676 19.9135 17.4772 19.6382 17.954C19.3612 18.4338 18.747 18.5969 18.2684 18.3178L17.4319 17.8299C17.4233 17.8249 17.4147 17.8201 17.4061 17.8154L17.1813 17.693C16.7893 17.4797 16.3034 17.5519 15.9904 17.8701C15.1122 18.7629 13.9979 19.42 12.7506 19.7411C12.3087 19.8548 11.9998 20.2532 11.9998 20.7095V20.9572L11.991 21.9703C11.9861 22.5191 11.5399 22.9615 10.9911 22.9615C10.4354 22.9615 9.98632 22.5085 9.99118 21.9528L9.99982 20.9703V20.7095C9.99982 20.2532 9.69096 19.8548 9.24908 19.7411C7.99055 19.4172 6.86744 18.7511 5.98564 17.846C5.66501 17.5169 5.16138 17.4487 4.76473 17.6805L3.66534 18.3232C3.19403 18.5987 2.58853 18.4382 2.31556 17.9654C2.04173 17.4911 2.20749 16.8845 2.68448 16.6154L3.78653 15.9936C4.18755 15.7674 4.38224 15.2965 4.25813 14.8531C4.09003 14.2526 3.99982 13.6184 3.99982 12.9615C3.99982 12.3114 4.0882 11.6834 4.25301 11.0884C4.3739 10.6518 4.1863 10.1886 3.79575 9.95919L3.57803 9.83128L2.70552 9.32753C2.22723 9.05139 2.06336 8.4398 2.3395 7.96151C2.61564 7.48321 3.22723 7.31934 3.70552 7.59548L4.55515 8.08602L4.75229 8.21001C5.15062 8.46057 5.66975 8.3995 5.99906 8.06334C6.87883 7.16528 7.99693 6.5043 9.24908 6.18202C9.69096 6.06829 9.99982 5.66987 9.99982 5.21358V3.96155Z" fill="#6C7278"/>
</svg>
